<svg xmlns="http://www.w3.org/2000/svg" class="icones-sprite" aria-hidden="true">
<!-- Remix Icon v4.5.0 (Apache-2.0), via gip-inclusion/itou-theme
     dist/fonts/remixicon/remixicon.symbol.svg — sous-ensemble des icônes utilisées. -->
<symbol viewBox="0 0 24 24" id="ri-arrow-right-line"><path d="M16.1716 10.9999L10.8076 5.63589L12.2218 4.22168L20 11.9999L12.2218 19.778L10.8076 18.3638L16.1716 12.9999H4V10.9999H16.1716Z"></path></symbol>
<symbol viewBox="0 0 24 24" id="ri-briefcase-line"><path d="M7 5V2C7 1.44772 7.44772 1 8 1H16C16.5523 1 17 1.44772 17 2V5H21C21.5523 5 22 5.44772 22 6V20C22 20.5523 21.5523 21 21 21H3C2.44772 21 2 20.5523 2 20V6C2 5.44772 2.44772 5 3 5H7ZM4 16V19H20V16H4ZM4 14H20V7H4V14ZM9 3V5H15V3H9ZM11 11H13V13H11V11Z"></path></symbol>
<symbol viewBox="0 0 24 24" id="ri-community-line"><path d="M21 21H3C2.44772 21 2 20.5523 2 20V12.4868C2 12.1978 2.12501 11.9229 2.34282 11.733L6 8.54435V4C6 3.44772 6.44772 3 7 3H21C21.5523 3 22 3.44772 22 4V20C22 20.5523 21.5523 21 21 21ZM9 19H12V12.9416L8 9.45402L4 12.9416V19H7V15H9V19ZM14 19H20V5H8V7.12729C8.23444 7.12729 8.46888 7.20938 8.65718 7.37355L13.6572 11.733C13.875 11.9229 14 12.1978 14 12.4868V19ZM16 11H18V13H16V11ZM16 15H18V17H16V15ZM16 7H18V9H16V7ZM12 7H14V9H12V7Z"></path></symbol>
<symbol viewBox="0 0 24 24" id="ri-compass-3-line"><path d="M12 22C6.47715 22 2 17.5228 2 12C2 6.47715 6.47715 2 12 2C17.5228 2 22 6.47715 22 12C22 17.5228 17.5228 22 12 22ZM12 20C16.4183 20 20 16.4183 20 12C20 7.58172 16.4183 4 12 4C7.58172 4 4 7.58172 4 12C4 16.4183 7.58172 20 12 20ZM16.5 7.5L14 14L7.5 16.5L10 10L16.5 7.5ZM12 13C12.5523 13 13 12.5523 13 12C13 11.4477 12.5523 11 12 11C11.4477 11 11 11.4477 11 12C11 12.5523 11.4477 13 12 13Z"></path></symbol>
<symbol viewBox="0 0 24 24" id="ri-double-quotes-l"><path d="M4.58341 17.3211C3.55316 16.2274 3 15 3 13.0103C3 9.51086 5.45651 6.37366 9.03059 4.82318L9.92328 6.20079C6.58804 8.00539 5.93618 10.346 5.67564 11.822C6.21263 11.5443 6.91558 11.4466 7.60471 11.5105C9.40908 11.6778 10.8312 13.159 10.8312 15C10.8312 16.933 9.26416 18.5 7.33116 18.5C6.2581 18.5 5.23196 18.0095 4.58341 17.3211ZM14.5834 17.3211C13.5532 16.2274 13 15 13 13.0103C13 9.51086 15.4565 6.37366 19.0306 4.82318L19.9233 6.20079C16.588 8.00539 15.9362 10.346 15.6756 11.822C16.2126 11.5443 16.9156 11.4466 17.6047 11.5105C19.4091 11.6778 20.8312 13.159 20.8312 15C20.8312 16.933 19.2642 18.5 17.3312 18.5C16.2581 18.5 15.232 18.0095 14.5834 17.3211Z"></path></symbol>
<symbol viewBox="0 0 24 24" id="ri-government-line"><path d="M20 6H23V8H22V19H23V21H1V19H2V8H1V6H4V4C4 3.44772 4.44772 3 5 3H19C19.5523 3 20 3.44772 20 4V6ZM20 8H4V19H7V12H9V19H11V12H13V19H15V12H17V19H20V8ZM6 5V6H18V5H6Z"></path></symbol>
<symbol viewBox="0 0 24 24" id="ri-group-line"><path d="M2 22C2 17.5817 5.58172 14 10 14C14.4183 14 18 17.5817 18 22H16C16 18.6863 13.3137 16 10 16C6.68629 16 4 18.6863 4 22H2ZM10 13C6.685 13 4 10.315 4 7C4 3.685 6.685 1 10 1C13.315 1 16 3.685 16 7C16 10.315 13.315 13 10 13ZM10 11C12.21 11 14 9.21 14 7C14 4.79 12.21 3 10 3C7.79 3 6 4.79 6 7C6 9.21 7.79 11 10 11ZM18.2837 14.7028C21.0644 15.9561 23 18.752 23 22H21C21 19.564 19.5483 17.4671 17.4628 16.5271L18.2837 14.7028ZM17.5962 3.41321C19.5944 4.23703 21 6.20361 21 8.5C21 11.3702 18.8042 13.7252 16 13.9776V11.9646C17.6967 11.7222 19 10.264 19 8.5C19 7.11935 18.2016 5.92603 17.041 5.35635L17.5962 3.41321Z"></path></symbol>
<symbol viewBox="0 0 24 24" id="ri-home-smile-2-line"><path d="M19 19V9.79875L12 4.27675L5 9.79875V19H19ZM21 20C21 20.5523 20.5523 21 20 21H4C3.44772 21 3 20.5523 3 20V9.31391C3 9.00773 3.14027 8.71843 3.38065 8.52879L11.3807 2.21793C11.7438 1.93142 12.2562 1.93142 12.6193 2.21793L20.6193 8.52879C20.8597 8.71843 21 9.00773 21 9.31391V20ZM7 12H9C9 13.6569 10.3431 15 12 15C13.6569 15 15 13.6569 15 12H17C17 14.7614 14.7614 17 12 17C9.23858 17 7 14.7614 7 12Z"></path></symbol>
<symbol viewBox="0 0 24 24" id="ri-line-chart-line"><path d="M5 3V19H21V21H3V3H5ZM20.2929 6.29289L21.7071 7.70711L16 13.4142L13 10.415L8.70711 14.7071L7.29289 13.2929L13 7.58579L16 10.585L20.2929 6.29289Z"></path></symbol>
<symbol viewBox="0 0 24 24" id="ri-route-line"><path d="M4 15V8.5C4 6.01472 6.01472 4 8.5 4C10.9853 4 13 6.01472 13 8.5V15.5C13 16.8807 14.1193 18 15.5 18C16.8807 18 18 16.8807 18 15.5V8.82929C16.8348 8.41746 16 7.30622 16 6C16 4.34315 17.3431 3 19 3C20.6569 3 22 4.34315 22 6C22 7.30622 21.1652 8.41746 20 8.82929V15.5C20 17.9853 17.9853 20 15.5 20C13.0147 20 11 17.9853 11 15.5V8.5C11 7.11929 9.88071 6 8.5 6C7.11929 6 6 7.11929 6 8.5V15H9L5 20L1 15H4ZM19 7C19.5523 7 20 6.55228 20 6C20 5.44772 19.5523 5 19 5C18.4477 5 18 5.44772 18 6C18 6.55228 18.4477 7 19 7Z"></path></symbol>
<symbol viewBox="0 0 24 24" id="ri-shield-star-line"><path d="M5 4.60434V13.7889C5 15.1263 5.6684 16.3752 6.7812 17.1171L12 20.5963L17.2188 17.1171C18.3316 16.3752 19 15.1263 19 13.7889V4.60434L12 3.04879L5 4.60434ZM3.78307 2.82598L12 1L20.2169 2.82598C20.6745 2.92766 21 3.33347 21 3.80217V13.7889C21 15.795 19.9974 17.6684 18.3282 18.7812L12 23L5.6718 18.7812C4.00261 17.6684 3 15.795 3 13.7889V3.80217C3 3.33347 3.32553 2.92766 3.78307 2.82598ZM12 13.5L9.06107 15.0451L9.62236 11.7725L7.24472 9.45492L10.5305 8.97746L12 6L13.4695 8.97746L16.7553 9.45492L14.3776 11.7725L14.9389 15.0451L12 13.5Z"></path></symbol>
<symbol viewBox="0 0 24 24" id="ri-user-add-line"><path d="M14 14.252V16.3414C13.3744 16.1203 12.7013 16 12 16C8.68629 16 6 18.6863 6 22H4C4 17.5817 7.58172 14 12 14C12.6906 14 13.3608 14.0875 14 14.252ZM12 13C8.685 13 6 10.315 6 7C6 3.685 8.685 1 12 1C15.315 1 18 3.685 18 7C18 10.315 15.315 13 12 13ZM12 11C14.21 11 16 9.21 16 7C16 4.79 14.21 3 12 3C9.79 3 8 4.79 8 7C8 9.21 9.79 11 12 11ZM18 17V14H20V17H23V19H20V22H18V19H15V17H18Z"></path></symbol>
<symbol viewBox="0 0 24 24" id="ri-user-line"><path d="M4 22C4 17.5817 7.58172 14 12 14C16.4183 14 20 17.5817 20 22H18C18 18.6863 15.3137 16 12 16C8.68629 16 6 18.6863 6 22H4ZM12 13C8.685 13 6 10.315 6 7C6 3.685 8.685 1 12 1C15.315 1 18 3.685 18 7C18 10.315 15.315 13 12 13ZM12 11C14.21 11 16 9.21 16 7C16 4.79 14.21 3 12 3C9.79 3 8 4.79 8 7C8 9.21 9.79 11 12 11Z"></path></symbol>
<symbol viewBox="0 0 24 24" id="ri-user-shared-line"><path d="M14 14.252V16.3414C13.3744 16.1203 12.7013 16 12 16C8.68629 16 6 18.6863 6 22H4C4 17.5817 7.58172 14 12 14C12.6906 14 13.3608 14.0875 14 14.252ZM12 13C8.685 13 6 10.315 6 7C6 3.685 8.685 1 12 1C15.315 1 18 3.685 18 7C18 10.315 15.315 13 12 13ZM12 11C14.21 11 16 9.21 16 7C16 4.79 14.21 3 12 3C9.79 3 8 4.79 8 7C8 9.21 9.79 11 12 11ZM18.5858 17L16.7574 15.1716L18.1716 13.7574L22.4142 18L18.1716 22.2426L16.7574 20.8284L18.5858 19H15V17H18.5858Z"></path></symbol>
<symbol viewBox="0 0 24 24" id="ri-bank-line"><path fill="currentColor" d="M2 20h20v2H2zm2-8h2v7H4zm5 0h2v7H9zm4 0h2v7h-2zm5 0h2v7h-2zM2 7l10-5l10 5v4H2zm2 1.236V9h16v-.764l-8-4zM12 8a1 1 0 1 1 0-2a1 1 0 0 1 0 2"/></symbol>
<symbol viewBox="0 0 24 24" id="ri-brush-line"><path fill="currentColor" d="m15.457 9.675l-.143-.142a5.5 5.5 0 0 0-2.39-1.349c-2.907-.779-5.699.869-6.492 3.83c-.043.16-.066.34-.104.791c-.154 1.87-.594 3.265-1.8 4.68c2.26.888 4.938 1.514 6.974 1.514a5.505 5.505 0 0 0 5.31-4.079a5.5 5.5 0 0 0-1.356-5.245m-2.168-3.462l4.939-3.842a1 1 0 0 1 1.32.083l2.995 2.994a1 1 0 0 1 .082 1.32l-3.84 4.939a7.505 7.505 0 0 1-7.283 9.292C8 20.999 3.5 19.497 1 17.997c3.98-3 3.047-4.81 3.5-6.5c1.058-3.95 4.842-6.258 8.789-5.284M16.7 8.092q.098.095.194.193L18.03 9.42l2.475-3.182l-1.746-1.746l-3.182 2.475z"/></symbol>
<symbol viewBox="0 0 24 24" id="ri-building-2-line"><path fill="currentColor" d="M3 19V5.7a1 1 0 0 1 .658-.94l9.671-3.516a.5.5 0 0 1 .671.47v4.953l6.316 2.105a1 1 0 0 1 .684.949V19h2v2H1v-2zm2 0h7V3.855L5 6.401zm14 0v-8.558l-5-1.667V19z"/></symbol>
<symbol viewBox="0 0 24 24" id="ri-car-line"><path fill="currentColor" d="M19 20H5v1a1 1 0 0 1-1 1H3a1 1 0 0 1-1-1V11l2.48-5.788A2 2 0 0 1 6.32 4h11.36a2 2 0 0 1 1.838 1.212L22 11v10a1 1 0 0 1-1 1h-1a1 1 0 0 1-1-1zm1-7H4v5h16zM4.176 11h15.648l-2.143-5H6.32zM6.5 17a1.5 1.5 0 1 1 0-3a1.5 1.5 0 0 1 0 3m11 0a1.5 1.5 0 1 1 0-3a1.5 1.5 0 0 1 0 3"/></symbol>
<symbol viewBox="0 0 24 24" id="ri-computer-line"><path fill="currentColor" d="M4 16h16V5H4zm9 2v2h4v2H7v-2h4v-2H2.992A1 1 0 0 1 2 16.992V4.008C2 3.451 2.455 3 2.992 3h18.016c.548 0 .992.449.992 1.007v12.985c0 .557-.455 1.008-.992 1.008z"/></symbol>
<symbol viewBox="0 0 24 24" id="ri-file-list-3-line"><path fill="currentColor" d="M19 22H5a3 3 0 0 1-3-3V3a1 1 0 0 1 1-1h14a1 1 0 0 1 1 1v12h4v4a3 3 0 0 1-3 3m-1-5v2a1 1 0 1 0 2 0v-2zm-2 3V4H4v15a1 1 0 0 0 1 1zM6 7h8v2H6zm0 4h8v2H6zm0 4h5v2H6z"/></symbol>
<symbol viewBox="0 0 24 24" id="ri-graduation-cap-line"><path fill="currentColor" d="M4 11.333L0 9l12-7l12 7v8.5h-2v-7.333l-2 1.166v6.678l-.223.275A9.98 9.98 0 0 1 12 22a9.98 9.98 0 0 1-7.777-3.714L4 18.011zM6 12.5v4.792A7.98 7.98 0 0 0 12 20a7.98 7.98 0 0 0 6-2.708V12.5L12 16zM3.97 9L12 13.685L20.03 9L12 4.315z"/></symbol>
<symbol viewBox="0 0 24 24" id="ri-hammer-line"><path fill="currentColor" d="M20 2a1 1 0 0 1 1 1v5a1 1 0 0 1-1 1h-5v13a1 1 0 0 1-1 1h-4a1 1 0 0 1-1-1V9H3.5a1 1 0 0 1-1-1V5.618a1 1 0 0 1 .553-.894L8.5 2zm-5 2H8.972L4.5 6.236V7H11v14h2V7h2zm4 0h-2v3h2z"/></symbol>
<symbol viewBox="0 0 24 24" id="ri-heart-pulse-line"><path fill="currentColor" d="M16.5 3C19.538 3 22 5.5 22 9c0 7-7.5 11-10 12.5c-1.977-1.186-7.083-3.937-9.131-8.499L1 13v-2h1.21A9.6 9.6 0 0 1 2 9c0-3.5 2.5-6 5.5-6C9.36 3 11 4 12 5c1-1 2.64-2 4.5-2m0 2c-1.076 0-2.24.57-3.086 1.414L12 7.828l-1.414-1.414C9.74 5.57 8.576 5 7.5 5C5.56 5 4 6.657 4 9q0 1.028.267 2h2.167L8.5 7.556l3 5L12.434 11H17v2h-3.434L11.5 16.444l-3-5L7.566 13H5.108c.79 1.374 1.985 2.668 3.537 3.903c.745.593 1.54 1.146 2.421 1.7c.299.189.595.37.934.572c.339-.202.635-.383.934-.571a27 27 0 0 0 2.42-1.701C18.335 14.533 20 11.943 20 9c0-2.36-1.537-4-3.5-4"/></symbol>
<symbol viewBox="0 0 24 24" id="ri-map-pin-line"><path fill="currentColor" d="m12 20.9l4.95-4.95a7 7 0 1 0-9.9 0zm0 2.828l-6.364-6.364a9 9 0 1 1 12.728 0zM12 13a2 2 0 1 0 0-4a2 2 0 0 0 0 4m0 2a4 4 0 1 1 0-8a4 4 0 0 1 0 8"/></symbol>
<symbol viewBox="0 0 24 24" id="ri-mic-line"><path fill="currentColor" d="M12 3a3 3 0 0 0-3 3v4a3 3 0 1 0 6 0V6a3 3 0 0 0-3-3m0-2a5 5 0 0 1 5 5v4a5 5 0 0 1-10 0V6a5 5 0 0 1 5-5M3.055 11H5.07a7.002 7.002 0 0 0 13.858 0h2.016A9.004 9.004 0 0 1 13 18.945V23h-2v-4.055A9.004 9.004 0 0 1 3.055 11"/></symbol>
<symbol viewBox="0 0 24 24" id="ri-money-euro-circle-line"><path fill="currentColor" d="M12.005 22.003c-5.523 0-10-4.477-10-10s4.477-10 10-10s10 4.477 10 10s-4.477 10-10 10m0-2a8 8 0 1 0 0-16a8 8 0 0 0 0 16m-1.95-9h4.95v2h-4.95a2.5 2.5 0 0 0 4.064 1.409l1.7 1.134a4.5 4.5 0 0 1-7.787-2.543H7.005v-2h1.027A4.5 4.5 0 0 1 15.82 8.46l-1.701 1.134a2.5 2.5 0 0 0-4.064 1.41"/></symbol>
<symbol viewBox="0 0 24 24" id="ri-plant-line"><path fill="currentColor" d="M5.998 2a7 7 0 0 1 6.197 3.741A6.49 6.49 0 0 1 17.498 3h3.5v2.5a6.5 6.5 0 0 1-6.5 6.5h-1.5v1h5v7a2 2 0 0 1-2 2h-8a2 2 0 0 1-2-2v-7h5v-2h-2a7 7 0 0 1-7-7V2zm10 13h-8v5h8zm3-10h-1.5a4.5 4.5 0 0 0-4.5 4.5v.5h1.5a4.5 4.5 0 0 0 4.5-4.5zm-13-1h-2a5 5 0 0 0 5 5h2a5 5 0 0 0-5-5"/></symbol>
<symbol viewBox="0 0 24 24" id="ri-restaurant-line"><path fill="currentColor" d="M21 2v20h-2v-7h-4V8a6 6 0 0 1 6-6m-2 2.53C18.17 5 17 6.17 17 8v5h2zM9 13.9V22H7v-8.1A5 5 0 0 1 3 9V3h2v7h2V3h2v7h2V3h2v6a5 5 0 0 1-4 4.9"/></symbol>
<symbol viewBox="0 0 24 24" id="ri-rocket-line"><path fill="currentColor" d="M5 13c0-5.088 2.902-9.436 7-11.182C16.097 3.564 19 7.912 19 13q-.002 1.236-.221 2.403l1.94 1.832a.5.5 0 0 1 .096.603l-2.495 4.575a.5.5 0 0 1-.793.114l-2.235-2.234a1 1 0 0 0-.707-.293H9.414a1 1 0 0 0-.707.293l-2.235 2.234a.5.5 0 0 1-.792-.114l-2.496-4.575a.5.5 0 0 1 .096-.603l1.94-1.832Q5.002 14.236 5 13m1.475 6.696l.817-.817a3 3 0 0 1 2.122-.88h5.171a3 3 0 0 1 2.122.88l.817.817l.982-1.8l-1.1-1.04a2 2 0 0 1-.593-1.82A11 11 0 0 0 17 13c0-3.87-1.995-7.3-5-8.96C8.995 5.7 7 9.13 7 13q0 1.038.186 2.036a2 2 0 0 1-.593 1.82l-1.1 1.04zM12 13a2 2 0 1 1 0-4a2 2 0 0 1 0 4"/></symbol>
<symbol viewBox="0 0 24 24" id="ri-search-line"><path fill="currentColor" d="m18.031 16.617l4.283 4.282l-1.415 1.415l-4.282-4.283A8.96 8.96 0 0 1 11 20c-4.968 0-9-4.032-9-9s4.032-9 9-9s9 4.032 9 9a8.96 8.96 0 0 1-1.969 5.617m-2.006-.742A6.98 6.98 0 0 0 18 11c0-3.867-3.133-7-7-7s-7 3.133-7 7s3.133 7 7 7a6.98 6.98 0 0 0 4.875-1.975z"/></symbol>
<symbol viewBox="0 0 24 24" id="ri-tools-line"><path fill="currentColor" d="M5.33 3.272a3.5 3.5 0 0 1 4.254 4.962l10.709 10.71l-1.414 1.414l-10.71-10.71a3.502 3.502 0 0 1-4.962-4.255L5.444 7.63a1.5 1.5 0 0 0 2.121-2.121zm10.367 1.883l3.182-1.768l1.414 1.415l-1.768 3.182l-1.768.353l-2.12 2.121l-1.415-1.414l2.121-2.121zm-6.718 8.132l1.415 1.414l-5.304 5.303a1 1 0 0 1-1.492-1.327l.078-.087z"/></symbol>
<symbol viewBox="0 0 24 24" id="ri-truck-line"><path fill="currentColor" d="M8.965 18a3.5 3.5 0 0 1-6.93 0H1V6a1 1 0 0 1 1-1h14a1 1 0 0 1 1 1v2h3l3 4.056V18h-2.035a3.501 3.501 0 0 1-6.93 0zM15 7H3v8.05a3.5 3.5 0 0 1 5.663.95h5.674c.168-.353.393-.674.663-.95zm2 6h4v-.285L18.992 10H17zm.5 6a1.5 1.5 0 1 0 0-3.001a1.5 1.5 0 0 0 0 3.001M7 17.5a1.5 1.5 0 1 0-3 0a1.5 1.5 0 0 0 3 0"/></symbol>
<symbol viewBox="0 0 24 24" id="ri-arrow-down-s-line"><path fill="currentColor" d="m12 13.171l4.95-4.95l1.414 1.415L12 16L5.636 9.636L7.05 8.222z"/></symbol>
<symbol viewBox="0 0 24 24" id="ri-close-line"><path fill="currentColor" d="m12 10.587l4.95-4.95l1.414 1.414l-4.95 4.95l4.95 4.95l-1.415 1.414l-4.95-4.95l-4.949 4.95l-1.414-1.415l4.95-4.95l-4.95-4.95L7.05 5.638z"/></symbol>
</svg>
